#!OML:ASF F:\VICON\USERDATA\INSTALL\rory3\rory3.ASF
:FULLY-SPECIFIED
:DEGREES
120
root -5.4763017912508065 18.05153656210883 -1.432671169287271 -173.6465298530776 0.07222532727288566 -184.10159733469985
lfemur -30.519705766761593 -19.2423267839764 -10.584748334920555
ltibia 25.90700971167228
lfoot 34.419930408616565 -47.624905299476985
ltoes 57.31939516034585
rfemur 13.287248170026555 -5.241920474538481 20.547155048718345
rtibia 20.450448374397162
rfoot 28.260428399645903 -26.809629218865112
rtoes 14.806581296368273
lowerback -5.812842220144705 11.736491026262964 9.978295818210299
upperback -8.15360117778478 16.238199989140973 1.7557994063990918
thorax -4.432926916464739 7.905047754014539 -2.585443267000354
lowerneck -20.33599078859283 -12.632735868930405 -1.9072240471877309
upperneck 5.043960654917177 -16.816055547256497 3.7639731048745713
head 5.242617497610583 -7.91533891727296 -0.5246677856601607
lclavicle -6.4550442979017145e-15 -4.7644919184702456e-15
lhumerus 43.30755647325196 2.9623230490516086 78.0303813304974
lradius 37.00312705814845
lwrist 32.31595766068847
lhand -11.398065720228628 17.4142013187821
lfingers 7.125020000000003
lthumb -165.3791283419677 388.08908202693794
rclavicle -6.4550442979017145e-15 -4.7644919184702456e-15
rhumerus 60.906609515716596 28.353963568025414 -77.6990004856611
rradius 30.701422751355693
rwrist -9.343796484583924
rhand -34.34410516635528 15.795565027503752
rfingers 7.125020000000003
rthumb -7.514495227835573 -13.510118316824565
121
root -5.473136771088015 18.054453262876603 -1.4183474381982912 -173.4130026907293 0.4324878736119082 -183.88042290748103
lfemur -30.41392700474872 -19.221423493645844 -10.545747389662804
ltibia 25.885072352362297
lfoot 33.6498571787625 -47.7238550716342
ltoes 56.42863899063525
rfemur 13.114945941614977 -5.140984809962357 20.513423180163755
rtibia 20.463098691796414
rfoot 28.268321525649576 -26.763657003408866
rtoes 14.545253444901027
lowerback -5.859086923897667 11.718114892775327 9.799992811417471
upperback -8.087185282739533 16.18269484555831 1.744200040337895
thorax -4.382422184403673 7.868509614487471 -2.4927497450475187
lowerneck -20.30682112015341 -12.484117699898805 -1.8950308882923212
upperneck 5.005395551295191 -16.62124630452229 3.7894565708080235
head 5.262774751082319 -7.817683676713658 -0.4914708031529116
lclavicle -6.583490968822002e-15 -4.8554419049816885e-15
lhumerus 42.295576097845256 2.3561321319936646 78.43817961068511
lradius 37.227198814077674
lwrist 32.723994858387876
lhand -11.489902731229218 17.932734195060675
lfingers 7.125020000000003
lthumb -165.4677660337086 388.797463942739
rclavicle -6.583490968822002e-15 -4.8554419049816885e-15
rhumerus 59.116780717531284 28.3143688613126 -78.32835690662266
rradius 30.79235295856422
rwrist -9.557640562454193
rhand -33.91175679374953 15.40826887715103
rfingers 7.125020000000003
rthumb -7.097751029229894 -13.895441937742298
122
root -5.471565227959478 18.05810740501038 -1.4118243878669596 -173.78309619246977 0.7234222872345661 -184.24733604661128
lfemur -30.35611366189564 -19.272914340317694 -10.522361792965675
ltibia 25.87664663862087
lfoot 32.82111852637953 -47.87918914233633
ltoes 55.38706311594321
rfemur 12.962204487267279 -5.072371131519958 20.42976603100524
rtibia 20.42075940712167
rfoot 28.259741046808806 -26.780512911397096
rtoes 14.366346528593207
lowerback -5.9434522071329505 11.669886186804478 9.603099736641408
upperback -8.032335828914114 16.090830871820096 1.7294903849656404
thorax -4.3321997577075395 7.822250505791769 -2.402626302964239
lowerneck -20.321298591981844 -12.362726436090446 -1.8814386037561597
upperneck 4.965836599004875 -16.471978753873053 3.7908606983500306
head 5.271439910169297 -7.742396162544964 -0.47035032255647224
lclavicle -6.837891336780968e-15 -5.035063368209319e-15
lhumerus 41.11390751730233 1.4487771972238157 78.72682859643163
lradius 37.508635231137866
lwrist 33.12918601429094
lhand -11.597554572449152 18.469093065493887
lfingers 7.125020000000003
lthumb -165.57117946020364 391.73267530192965
rclavicle -6.837891336780968e-15 -5.035063368209319e-15
rhumerus 57.25142286733612 28.381966258111 -78.88016840217261
rradius 30.936738947286944
rwrist -9.973620578283757
rhand -33.55043853007003 15.031338131683176
rfingers 7.125020000000003
rthumb -6.749079638891359 -14.262655488932591
123
root -5.461525967316884 18.064324635789593 -1.377263130044145 -172.9114997374835 1.4560307859778554 -183.38229667285836
lfemur -30.158824996868873 -19.076414412914055 -10.42611591517119
ltibia 26.003236986975125
lfoot 32.17471419567801 -47.717372916509625
ltoes 54.588514343656286
rfemur 13.028265271688735 -4.885398150230541 20.42868685049287
rtibia 20.47636353670101
rfoot 28.466993641818505 -26.545828413594855
rtoes 14.313010551517948
lowerback -5.962517379428471 11.735845490995382 9.562217036099987
upperback -7.912095197683982 16.15807589923471 1.7781555144964578
thorax -4.2405764751394415 7.8497590572785 -2.2448461338682426
lowerneck -20.237889861027593 -12.072340688280477 -1.811770958351648
upperneck 5.068117674158231 -16.073364853713926 3.896051123875103
head 5.331389016605738 -7.54719083102024 -0.43126074194619646
lclavicle -6.1862466984045214e-15 -4.572828422296785e-15
lhumerus 40.30567879462728 0.8274908335254345 79.07882494270291
lradius 38.14213723584674
lwrist 33.90198464992373
lhand -11.543784653423128 19.299283399952056
lfingers 7.125020000000003
lthumb -165.51982577691905 393.4275282354155
rclavicle -6.186246698404522e-15 -4.572828422296785e-15
rhumerus 56.01604761714889 28.858943019005814 -79.14679808426015
rradius 31.555741316107532
rwrist -10.277541764053106
rhand -32.93579215980468 14.74838476488565
rfingers 7.125020000000003
rthumb -6.157029459256053 -14.53484701320535
124
root -5.463226846323236 18.06724861475122 -1.3833045552067036 -173.26770798060573 1.7422986266725822 -183.7394629319951
lfemur -30.096571563707105 -19.17529473038371 -10.473666956994414
ltibia 25.99038578696151
lfoot 31.16295412258237 -47.8513188760734
ltoes 53.09540642970754
rfemur 12.748445303699754 -4.7802783214558895 20.304627943203684
rtibia 20.405775377351127
rfoot 28.456944667771886 -26.674763842181775
rtoes 14.052647793347713
lowerback -6.072644038395281 11.636321193228898 9.30833917240773
upperback -7.891386722141958 15.99587785324365 1.7477049594125045
thorax -4.210872742407565 7.764476654859211 -2.1590154555033987
lowerneck -20.250495724464656 -11.969888053985464 -1.7702438784162995
upperneck 4.980565113459358 -15.954115022943222 3.837005641215672
head 5.317267490508733 -7.487629531844537 -0.4179518560413039
lclavicle -6.757691353875686e-15 -4.977543413821887e-15
lhumerus 39.04261834216844 -0.5604291128026127 79.10114807167743
lradius 38.605658133892746
lwrist 34.57452401810184
lhand -11.64766141727082 19.86413635175919
lfingers 7.125020000000003
lthumb -165.61960338291087 394.5328226663588
rclavicle -6.757691353875687e-15 -4.977543413821887e-15
rhumerus 54.140983573373056 29.080625796353566 -79.52623050046925
rradius 31.93204762411213
rwrist -11.055399356202763
rhand -32.52378979669247 14.244366695641126
rfingers 7.125020000000003
rthumb -5.759438052376748 -15.036351054833364
125
root -5.453409784925439 18.07434873297339 -1.351745810602821 -172.69988280800698 2.5005790350857744 -183.16850907915767
lfemur -29.889004747200026 -19.0099266125794 -10.394013956826715
ltibia 26.130070604390532
lfoot 30.442461726996306 -47.64652710496213
ltoes 52.01723733785559
rfemur 12.83814675387389 -4.582010072420434 20.250701700322203
rtibia 20.438396154207325
rfoot 28.711810149220277 -26.41723276022089
rtoes 14.063078349931367
lowerback -6.115854737671075 11.680596780882006 9.262904743864736
upperback -7.773748220328873 16.03652565064573 1.7996784959637084
thorax -4.115442483091476 7.784048008694669 -1.9917134375173324
lowerneck -20.179843809530354 -11.647159842226289 -1.6758188059044783
upperneck 5.0981829967034695 -15.523492002347988 3.9129620393736957
head 5.370431950582409 -7.278782593864338 -0.39152031919021124
lclavicle -6.11441007902746e-15 -4.5203174914450896e-15
lhumerus 38.16343634892593 -1.5403101760340157 79.31799320387628
lradius 39.38429304687664
lwrist 35.51041164909917
lhand -11.583283102012288 20.778307180233067
lfingers 7.125020000000003
lthumb -165.55772520006357 398.0991925899437
rclavicle -6.11441007902746e-15 -4.5203174914450896e-15
rhumerus 52.89564546036174 29.7664360346441 -79.66144678703344
rradius 32.76924980572213
rwrist -11.624826354315601
rhand -31.925260560898728 13.950448451892273
rfingers 7.125020000000003
rthumb -5.1825984457392025 -15.314193947220339
126
root -5.45342034179871 18.078522588641448 -1.350252885181236 -172.74054150305363 3.0307493075874348 -183.18908659773382
lfemur -29.77060626526187 -19.013824327038183 -10.441561939924636
ltibia 26.202815578034166
lfoot 29.42071074870975 -47.62025713722144
ltoes 50.29188806048532
rfemur 12.611201622984908 -4.438121831836456 20.12634810093406
rtibia 20.396878475938557
rfoot 28.753368451844864 -26.474007708241096
rtoes 13.820949867488476
lowerback -6.214686677360335 11.60600416908621 9.05581826499621
upperback -7.736773573761541 15.914731875502966 1.7990492623305943
thorax -4.075279550197723 7.720253340161588 -1.8749876346760184
lowerneck -20.128821603069703 -11.495696505999577 -1.5892754452485094
upperneck 5.0905191118144995 -15.33222463183733 3.881895867618158
head 5.375999061788841 -7.181682670423743 -0.37516505772957587
lclavicle -6.425569519565695e-15 -4.741208631160021e-15
lhumerus 36.93276322414303 -3.070032834509597 79.25842563334056
lradius 40.07694364326705
lwrist 36.43227285606114
lhand -11.614480105994591 21.515968947426618
lfingers 7.125020000000003
lthumb -165.58775371678004 398.53480383867515
rclavicle -6.425569519565696e-15 -4.7412086311600206e-15
rhumerus 51.22426327228142 30.291801291075508 -79.90238103604158
rradius 33.42131958751507
rwrist -12.594859967125027
rhand -31.42965684241314 13.436189017300194
rfingers 7.125020000000003
rthumb -4.704684810655632 -15.8216136190037
127
root -5.449645889048988 18.08389668365883 -1.3402158410546288 -172.72574809474622 3.6389065986644376 -183.1615857940269
lfemur -29.56800090476544 -18.991841165091405 -10.455735791444758
ltibia 26.270460306395453
lfoot 28.418324760066984 -47.503751741244
ltoes 48.61784395412248
rfemur 12.537775381245776 -4.252957656425726 19.97670918411734
rtibia 20.379711572590303
rfoot 28.92988364022522 -26.37852544873865
rtoes 13.7037642886573
lowerback -6.313588045473921 11.567810719718198 8.90489197794361
upperback -7.6752274670100356 15.846754316398673 1.8179153548348095
thorax -4.0127691190586745 7.688348016640367 -1.7380024329300117
lowerneck -20.088891204547565 -11.243499998099368 -1.4844858193427461
upperneck 5.147946116874863 -15.016671501724614 3.8699092922118625
head 5.396340846945045 -7.027774155336798 -0.3672229958372495
lclavicle -6.388118679329929e-15 -4.713202987963539e-15
lhumerus 35.802678789663474 -4.612253604329421 79.30089786191816
lradius 40.859511990810404
lwrist 37.500578657248845
lhand -11.653573088404523 22.37685540076873
lfingers 7.125020000000003
lthumb -165.62513752890288 401.67313034681234
rclavicle -6.388118679329929e-15 -4.713202987963539e-15
rhumerus 49.650061886488615 31.01889072498758 -80.05005572583677
rradius 34.25361801606124
rwrist -13.528038520637576
rhand -30.89317344476954 12.993972611393314
rfingers 7.125020000000003
rthumb -4.187262945277366 -16.255504537499398
